<svg id="visual" viewBox="0 0 1920 1080" width="1920" height="1080" xmlns="http://www.w3.org/2000/svg" xmlns:xlink="http://www.w3.org/1999/xlink" version="1.1"><rect x="0" y="0" width="1920" height="1080" fill="#001220"></rect><defs><linearGradient id="grad1_0" x1="43.8%" y1="0%" x2="100%" y2="100%"><stop offset="14.444444444444446%" stop-color="#fbae3c" stop-opacity="1"></stop><stop offset="85.55555555555554%" stop-color="#fbae3c" stop-opacity="1"></stop></linearGradient></defs><defs><linearGradient id="grad1_1" x1="43.8%" y1="0%" x2="100%" y2="100%"><stop offset="14.444444444444446%" stop-color="#fbae3c" stop-opacity="1"></stop><stop offset="85.55555555555554%" stop-color="#001220" stop-opacity="1"></stop></linearGradient></defs><defs><linearGradient id="grad2_0" x1="0%" y1="0%" x2="56.3%" y2="100%"><stop offset="14.444444444444446%" stop-color="#fbae3c" stop-opacity="1"></stop><stop offset="85.55555555555554%" stop-color="#fbae3c" stop-opacity="1"></stop></linearGradient></defs><defs><linearGradient id="grad2_1" x1="0%" y1="0%" x2="56.3%" y2="100%"><stop offset="14.444444444444446%" stop-color="#001220" stop-opacity="1"></stop><stop offset="85.55555555555554%" stop-color="#fbae3c" stop-opacity="1"></stop></linearGradient></defs><g transform="translate(1920, 0)"><path d="M0 918C-75.2 849.3 -150.5 780.6 -248.4 764.6C-346.4 748.7 -467.2 785.5 -539.6 742.7C-612 699.8 -636.1 577.2 -666.6 484.3C-697.1 391.4 -734.1 328.2 -777 252.5C-820 176.7 -869 88.3 -918 0L0 0Z" fill="#96446e"></path><path d="M0 459C-37.6 424.6 -75.2 390.3 -124.2 382.3C-173.2 374.4 -233.6 392.8 -269.8 371.3C-306 349.9 -318.1 288.6 -333.3 242.2C-348.6 195.7 -367 164.1 -388.5 126.2C-410 88.3 -434.5 44.2 -459 0L0 0Z" fill="#fbae3c"></path></g><g transform="translate(0, 1080)"><path d="M0 -918C77.2 -860.2 154.3 -802.5 256.2 -788.4C358 -774.4 484.5 -804 539.6 -742.7C594.7 -681.4 578.4 -529.2 597.1 -433.8C615.7 -338.3 669.2 -299.6 728.5 -236.7C787.8 -173.9 852.9 -86.9 918 0L0 0Z" fill="#96446e"></path><path d="M0 -459C38.6 -430.1 77.2 -401.2 128.1 -394.2C179 -387.2 242.2 -402 269.8 -371.3C297.3 -340.7 289.2 -264.6 298.5 -216.9C307.8 -169.2 334.6 -149.8 364.3 -118.4C393.9 -86.9 426.5 -43.5 459 0L0 0Z" fill="#fbae3c"></path></g></svg>