<svg id="visual" viewBox="0 0 900 600" width="900" height="600" xmlns="http://www.w3.org/2000/svg" xmlns:xlink="http://www.w3.org/1999/xlink" version="1.1"><rect width="900" height="600" fill="#e8e8e8"></rect><g><g transform="translate(759 569)"><path d="M0 -109.1L85.3 -68L106.4 24.3L47.3 98.3L-47.3 98.3L-106.4 24.3L-85.3 -68Z" fill="none" stroke="#FCAF3C" stroke-width="3"></path></g><g transform="translate(807 132)"><path d="M0 -70L54.7 -43.6L68.2 15.6L30.4 63.1L-30.4 63.1L-68.2 15.6L-54.7 -43.6Z" fill="none" stroke="#FCAF3C" stroke-width="3"></path></g><g transform="translate(329 236)"><path d="M0 -59L46.1 -36.8L57.5 13.1L25.6 53.2L-25.6 53.2L-57.5 13.1L-46.1 -36.8Z" fill="none" stroke="#FCAF3C" stroke-width="3"></path></g><g transform="translate(574 438)"><path d="M0 -86L67.2 -53.6L83.8 19.1L37.3 77.5L-37.3 77.5L-83.8 19.1L-67.2 -53.6Z" stroke="#FCAF3C" fill="none" stroke-width="3"></path></g><g transform="translate(614 5)"><path d="M0 -101L79 -63L98.5 22.5L43.8 91L-43.8 91L-98.5 22.5L-79 -63Z" stroke="#FCAF3C" fill="none" stroke-width="3"></path></g><g transform="translate(101 394)"><path d="M0 -106L82.9 -66.1L103.3 23.6L46 95.5L-46 95.5L-103.3 23.6L-82.9 -66.1Z" stroke="#FCAF3C" fill="none" stroke-width="3"></path></g><g transform="translate(222 23)"><path d="M0 -105L82.1 -65.5L102.4 23.4L45.6 94.6L-45.6 94.6L-102.4 23.4L-82.1 -65.5Z" stroke="#FCAF3C" fill="none" stroke-width="3"></path></g><g transform="translate(264 549)"><path d="M0 -75L58.6 -46.8L73.1 16.7L32.5 67.6L-32.5 67.6L-73.1 16.7L-58.6 -46.8Z" stroke="#FCAF3C" fill="none" stroke-width="3"></path></g><g transform="translate(826 354)"><path d="M0 -97L75.8 -60.5L94.6 21.6L42.1 87.4L-42.1 87.4L-94.6 21.6L-75.8 -60.5Z" stroke="#FCAF3C" fill="none" stroke-width="3"></path></g><g transform="translate(13 128)"><path d="M0 -103L80.5 -64.2L100.4 22.9L44.7 92.8L-44.7 92.8L-100.4 22.9L-80.5 -64.2Z" stroke="#FCAF3C" fill="none" stroke-width="3"></path></g></g></svg>